<svg width="60" height="15" viewBox="0 0 60 15" fill="none" xmlns="http://www.w3.org/2000/svg">
<g filter="url(#filter0_i_39_12)">
<rect x="1.70621" y="1.25" width="12.5" height="12.5" rx="6.25" fill="url(#paint0_radial_39_12)"/>
</g>
<path d="M7.53565 8.2134L6.94911 8.05624C6.3463 7.89472 6.04459 7.81341 5.97117 7.5822C5.89776 7.35099 6.09779 7.11137 6.49785 6.63213L8.34391 4.41946L8.3491 4.41325C8.59887 4.11448 8.72367 3.9652 8.80265 4.0055C8.88152 4.04682 8.83035 4.23777 8.72825 4.6188L8.22006 6.51542C8.19298 6.61646 8.17945 6.66698 8.20233 6.70661C8.22521 6.74624 8.27572 6.75977 8.37676 6.78685L8.9633 6.94401C9.56611 7.10553 9.86783 7.18683 9.94124 7.41804C10.0147 7.64925 9.81463 7.88887 9.41456 8.36811L7.56332 10.587C7.31354 10.8858 7.18874 11.0351 7.10976 10.9947C7.0309 10.9534 7.08206 10.7625 7.18416 10.3814L7.69236 8.48482C7.71943 8.38378 7.73297 8.33327 7.71009 8.29364C7.68721 8.25401 7.63669 8.24047 7.53565 8.2134Z" fill="white"/>
<path d="M21.9448 10.8248H20.4741L20.8158 8.39357H22.2865L21.9448 10.8248ZM22.3117 3.00319C23.0734 3.00319 23.7418 3.12504 24.3169 3.36873C24.8965 3.60856 25.3272 3.94897 25.609 4.38995C25.8952 4.82706 25.9983 5.32993 25.9184 5.89856C25.8363 6.48266 25.5905 6.9952 25.1808 7.43618C24.7751 7.87716 24.2504 8.2195 23.6068 8.4632C22.9637 8.70303 22.2597 8.82101 21.4946 8.81714C20.7323 8.82101 20.0633 8.70303 19.4877 8.4632C18.9165 8.2195 18.488 7.87716 18.2023 7.43618C17.9166 6.9952 17.8148 6.48266 17.8969 5.89856C17.9769 5.32993 18.2214 4.82706 18.6304 4.38995C19.0401 3.94897 19.5645 3.60856 20.2037 3.36873C20.8473 3.12504 21.55 3.00319 22.3117 3.00319ZM22.1453 4.18687C21.6492 4.18687 21.2 4.25649 20.7976 4.39575C20.3958 4.53114 20.0692 4.72842 19.8179 4.98759C19.5706 5.24676 19.4224 5.55042 19.3735 5.89856C19.3224 6.26217 19.3838 6.5755 19.5578 6.83854C19.7362 7.09771 20.0051 7.29693 20.3644 7.43618C20.7282 7.57157 21.1601 7.63926 21.6601 7.63926C22.164 7.63926 22.6149 7.57157 23.0129 7.43618C23.4153 7.29693 23.7401 7.09771 23.9875 6.83854C24.2393 6.5755 24.3908 6.26217 24.4419 5.89856C24.4908 5.55042 24.426 5.24676 24.2476 4.98759C24.0731 4.72842 23.804 4.53114 23.4402 4.39575C23.0769 4.25649 22.6453 4.18687 22.1453 4.18687ZM25.9696 11.7879H16.2196L16.3901 10.5753H26.1401L25.9696 11.7879ZM36.0547 5.77671H28.6367L28.8014 4.60463H36.2194L36.0547 5.77671ZM36.9104 7.65087H27.1604L27.3243 6.4846H37.0743L36.9104 7.65087ZM30.2017 5.23129H28.7134L29.0844 2.59122H30.5727L30.2017 5.23129ZM35.2534 11.1033H29.3119L29.1774 12.0607H27.6657L27.9511 10.0298H33.9277L34.0125 9.42639H28.0183L28.1773 8.29493H35.648L35.2534 11.1033ZM35.3396 12.9078H27.5466L27.7073 11.7647H35.5002L35.3396 12.9078ZM42.8933 9.35676H41.4226L41.6387 7.81914H43.1094L42.8933 9.35676ZM47.1917 8.03963H37.5062L37.6579 6.96039H47.3434L47.1917 8.03963ZM43.6785 3.72848H42.1961L42.3755 2.45196H43.8579L43.6785 3.72848ZM43.3765 4.00119C43.3047 4.5118 43.0701 4.95858 42.6725 5.34153C42.2749 5.72449 41.72 6.03201 41.0077 6.26411C40.2998 6.49233 39.458 6.63159 38.4822 6.68188L38.2312 5.59103C39.0569 5.55235 39.7499 5.45758 40.3102 5.30672C40.8749 5.15199 41.298 4.96245 41.5796 4.73809C41.865 4.51373 42.0265 4.2681 42.064 4.00119L42.0942 3.7865H43.4067L43.3765 4.00119ZM43.7398 4.00119C43.6984 4.2681 43.7888 4.51373 44.0112 4.73809C44.2336 4.96245 44.6054 5.15199 45.1266 5.30672C45.6484 5.45758 46.3206 5.55235 47.1433 5.59103L46.5564 6.68188C45.5986 6.63159 44.7981 6.4904 44.155 6.25831C43.5157 6.02621 43.0489 5.72062 42.7545 5.34153C42.4607 4.95858 42.3516 4.5118 42.4273 4.00119L42.4574 3.7865H43.7699L43.7398 4.00119ZM46.7856 4.38415H38.934L39.0881 3.2875H46.9397L46.7856 4.38415ZM45.5707 11.2773H39.6293L39.4849 12.3044H38.0142L38.298 10.2851H44.2336L44.3061 9.76873H38.3647L38.514 8.7069H45.9319L45.5707 11.2773ZM45.6171 12.9484H37.9237L38.0762 11.8634H45.7696L45.6171 12.9484ZM50.1933 4.19267H52.3789L52.5558 2.93356H54.0558L53.4075 7.54643H48.2396L48.8879 2.93356H50.3703L50.1933 4.19267ZM52.0714 6.38015L52.2231 5.30092H50.0376L49.8859 6.38015H52.0714ZM56.3433 7.83654H54.8492L55.6059 2.45196H57.1001L56.3433 7.83654ZM58.0824 5.71869H56.0199L56.1887 4.5176H58.2512L58.0824 5.71869ZM55.8842 11.1033H50.3002L50.1225 12.3682H48.6518L48.9788 10.0414H54.5452L54.6381 9.37997H49.0541L49.2148 8.23691H56.2871L55.8842 11.1033ZM55.9354 12.9484H48.5702L48.7333 11.7879H56.0985L55.9354 12.9484Z" fill="#6644FF"/>
<defs>
<filter id="filter0_i_39_12" x="1.70621" y="0.75" width="12.5" height="13" filterUnits="userSpaceOnUse" color-interpolation-filters="sRGB">
<feFlood flood-opacity="0" result="BackgroundImageFix"/>
<feBlend mode="normal" in="SourceGraphic" in2="BackgroundImageFix" result="shape"/>
<feColorMatrix in="SourceAlpha" type="matrix" values="0 0 0 0 0 0 0 0 0 0 0 0 0 0 0 0 0 0 127 0" result="hardAlpha"/>
<feOffset dy="-1"/>
<feGaussianBlur stdDeviation="0.25"/>
<feComposite in2="hardAlpha" operator="arithmetic" k2="-1" k3="1"/>
<feColorMatrix type="matrix" values="0 0 0 0 0 0 0 0 0 0 0 0 0 0 0 0 0 0 0.02 0"/>
<feBlend mode="normal" in2="shape" result="effect1_innerShadow_39_12"/>
</filter>
<radialGradient id="paint0_radial_39_12" cx="0" cy="0" r="1" gradientUnits="userSpaceOnUse" gradientTransform="translate(4.91158 0.819187) rotate(76.7507) scale(13.2844 10.679)">
<stop stop-color="#C0B2FF"/>
<stop offset="1" stop-color="#6644FF"/>
</radialGradient>
</defs>
</svg>
