<svg width="11" height="11" viewBox="0 0 11 11" fill="none" xmlns="http://www.w3.org/2000/svg">
<path d="M8.70834 1.83337C9.05906 1.83335 9.39653 1.96736 9.65171 2.20796C9.90688 2.44857 10.0605 2.77759 10.081 3.12771L10.0833 3.20837V4.04117C10.0823 4.16495 10.0489 4.28632 9.98656 4.39325C9.92417 4.50017 9.83493 4.58894 9.72767 4.65075L9.67863 4.67733C9.53035 4.75012 9.40448 4.86162 9.31435 5.00004C9.22422 5.13847 9.17317 5.29868 9.16659 5.46374C9.16002 5.62879 9.19817 5.79255 9.277 5.93771C9.35584 6.08287 9.47244 6.20403 9.61446 6.28837L9.67863 6.32275C9.87709 6.42083 10.0545 6.62342 10.0801 6.89108L10.0833 6.95892V7.79171C10.0834 8.14243 9.94936 8.4799 9.70875 8.73508C9.46814 8.99025 9.13912 9.14384 8.78901 9.16442L8.70834 9.16671H2.29167C1.94095 9.16673 1.60348 9.03273 1.3483 8.79212C1.09313 8.55151 0.939539 8.22249 0.918963 7.87237L0.916672 7.79171V6.95892C0.916672 6.68117 1.07801 6.46483 1.27234 6.34933L1.32138 6.32275C1.46967 6.24997 1.59553 6.13847 1.68566 6.00004C1.77579 5.86161 1.82684 5.7014 1.83342 5.53634C1.83999 5.37129 1.80184 5.20753 1.72301 5.06237C1.64417 4.91721 1.52757 4.79605 1.38555 4.71171L1.32138 4.67733C1.12292 4.57925 0.945547 4.37667 0.91988 4.109L0.916672 4.04162V3.20837C0.916652 2.85765 1.05065 2.52018 1.29126 2.265C1.53187 2.00983 1.86089 1.85624 2.21101 1.83567L2.29167 1.83337H8.70834ZM4.58334 4.12504C4.46178 4.12504 4.3452 4.17333 4.25925 4.25928C4.17329 4.34524 4.12501 4.46182 4.12501 4.58337V6.41671C4.12501 6.53827 4.17329 6.65484 4.25925 6.7408C4.3452 6.82675 4.46178 6.87504 4.58334 6.87504C4.7049 6.87504 4.82147 6.82675 4.90743 6.7408C4.99338 6.65484 5.04167 6.53827 5.04167 6.41671V4.58337C5.04167 4.46182 4.99338 4.34524 4.90743 4.25928C4.82147 4.17333 4.7049 4.12504 4.58334 4.12504Z" fill="#FF7677"/>
</svg>
