<svg width="47" height="20" viewBox="0 0 47 20" fill="none" xmlns="http://www.w3.org/2000/svg">
<rect width="47" height="20" rx="4" fill="#EAEDEF"/>
<path d="M13.1899 11.2119H4.31689V10.2451H13.1899V11.2119ZM9.31201 14.4453H8.13574V10.8521H9.31201V14.4453ZM12.0996 9.11182H5.39111V5.24463H12.0996V9.11182ZM6.56201 8.17188H10.9072V6.20068H6.56201V8.17188ZM17.3418 12.7427H16.1763V10.4062H17.3418V12.7427ZM20.457 12.7319H19.2861V10.3955H20.457V12.7319ZM22.7075 13.3281H13.8345V12.3452H22.7075V13.3281ZM21.6494 8.52637H16.0742V10.2881H14.8818V7.57031H20.4731V6.37256H14.8657V5.40576H21.6494V8.52637ZM21.8804 10.7393H14.8818V9.76709H21.8804V10.7393ZM24.7646 7.87646H26.3438V5.63135H27.4556V12.1089H23.6367V5.63135H24.7646V7.87646ZM26.3438 11.1475V8.82715H24.7646V11.1475H26.3438ZM31.7148 14.4453H30.5654V4.74512H31.7148V14.4453ZM30.9414 9.47705H29.2119V8.50488H30.9414V9.47705ZM29.5342 13.9888H28.4062V4.91162H29.5342V13.9888ZM37.8433 9.93359H36.667V8.17188H37.8433V9.93359ZM37.6606 5.27148C37.6606 5.85514 37.4959 6.38688 37.1665 6.8667C36.8371 7.34294 36.377 7.74219 35.7861 8.06445C35.1989 8.38672 34.5239 8.60693 33.7612 8.7251L33.3262 7.78516C33.9779 7.7028 34.5562 7.5363 35.061 7.28564C35.5695 7.03499 35.9598 6.73421 36.2319 6.3833C36.5076 6.03239 36.6455 5.66178 36.6455 5.27148V4.90625H37.6606V5.27148ZM37.8594 5.27148C37.8594 5.67253 37.9954 6.0485 38.2676 6.39941C38.5433 6.75033 38.9336 7.04932 39.4385 7.29639C39.9469 7.53988 40.5324 7.7028 41.1948 7.78516L40.7275 8.7251C39.9684 8.60693 39.2952 8.38672 38.708 8.06445C38.1208 7.74219 37.6624 7.34294 37.333 6.8667C37.0036 6.39046 36.8407 5.85872 36.8442 5.27148V4.90625H37.8594V5.27148ZM41.689 10.3955H32.8481V9.44482H41.689V10.3955ZM37.2578 11.0239C37.9561 11.0239 38.5576 11.092 39.0625 11.228C39.5674 11.3605 39.9523 11.5557 40.2173 11.8135C40.4858 12.0677 40.6201 12.3757 40.6201 12.7373C40.6201 13.099 40.4858 13.4069 40.2173 13.6611C39.9523 13.9154 39.5674 14.1087 39.0625 14.2412C38.5612 14.3737 37.9596 14.4399 37.2578 14.4399C36.5488 14.4399 35.9419 14.3737 35.437 14.2412C34.9357 14.1087 34.549 13.9154 34.2769 13.6611C34.0083 13.4069 33.874 13.099 33.874 12.7373C33.874 12.3757 34.0083 12.0677 34.2769 11.8135C34.549 11.5557 34.9375 11.3605 35.4424 11.228C35.9473 11.092 36.5524 11.0239 37.2578 11.0239ZM37.2578 11.9424C36.778 11.9424 36.377 11.971 36.0547 12.0283C35.736 12.0856 35.4943 12.1733 35.3296 12.2915C35.1685 12.4097 35.0897 12.5583 35.0933 12.7373C35.0897 12.9128 35.1685 13.0614 35.3296 13.1831C35.4943 13.3013 35.7378 13.3908 36.0601 13.4517C36.3823 13.5125 36.7816 13.543 37.2578 13.543C37.7269 13.543 38.1226 13.5125 38.4448 13.4517C38.7671 13.3872 39.0106 13.2959 39.1753 13.1777C39.34 13.0596 39.4224 12.9128 39.4224 12.7373C39.4224 12.5583 39.34 12.4097 39.1753 12.2915C39.0106 12.1733 38.7671 12.0856 38.4448 12.0283C38.1226 11.971 37.7269 11.9424 37.2578 11.9424Z" fill="#828C94"/>
</svg>
