<svg width="30" height="20" viewBox="0 0 30 20" fill="none" xmlns="http://www.w3.org/2000/svg">
<rect width="30" height="20" rx="4" fill="#FF7777"/>
<path d="M14.1685 10.7661H5.30615V9.8208H14.1685V10.7661ZM13.0566 14.4453H11.8481V12.4526H6.30518V11.5073H13.0566V14.4453ZM13.1802 9.10107H6.43945V8.19336H13.1802V9.10107ZM13.1104 5.91064H7.63721V8.65527H6.43945V4.98145H13.1104V5.91064ZM12.8687 7.47363H7.28809V6.57666H12.8687V7.47363ZM22.4346 14.4399H21.2422V4.74512H22.4346V14.4399ZM23.874 9.53076H22.1284V8.54248H23.874V9.53076ZM19.8726 5.76025C19.869 6.74854 19.7204 7.66878 19.4268 8.521C19.1331 9.36963 18.6587 10.1502 18.0034 10.8628C17.3481 11.5754 16.4995 12.1895 15.4575 12.7051L14.7861 11.7812C15.6598 11.3408 16.3867 10.8359 16.9668 10.2666C17.5469 9.69368 17.9801 9.05273 18.2666 8.34375C18.5531 7.63118 18.6963 6.83984 18.6963 5.96973V5.76025H19.8726ZM19.3032 6.74316H15.291V5.76025H19.3032V6.74316Z" fill="white"/>
</svg>
