<svg width="75" height="29" viewBox="0 0 75 29" fill="none" xmlns="http://www.w3.org/2000/svg">
<path d="M52.9567 2.84108C52.9567 2.09308 53.5717 1.48608 54.3307 1.48608C55.0897 1.48608 55.7047 2.09308 55.7047 2.84208V26.7611C55.7047 27.5101 55.0897 28.1161 54.3307 28.1161C53.9688 28.1185 53.6208 27.9771 53.3632 27.723C53.1055 27.4689 52.9593 27.1229 52.9567 26.7611V22.2471C49.9647 22.9801 45.6427 23.1971 43.1447 23.1971H41.0537C40.6918 23.1995 40.3438 23.0581 40.0862 22.804C39.8285 22.5499 39.6823 22.2039 39.6797 21.8421C39.6797 21.0931 40.2947 20.4861 41.0537 20.4861H43.1447C47.5227 20.4861 51.1357 19.9931 52.9567 19.4341V2.84108Z" fill="#2F3438"/>
<path fill-rule="evenodd" clip-rule="evenodd" d="M45.7275 17.2203C47.3915 17.2203 48.7795 16.3503 49.6375 14.7683C50.3155 13.5163 50.6745 11.7863 50.6745 9.76429C50.6745 7.74229 50.3155 6.01229 49.6365 4.76029C48.7795 3.17829 47.3915 2.30829 45.7275 2.30829C44.0635 2.30829 42.6755 3.17829 41.8175 4.76029C41.1395 6.01229 40.7805 7.74229 40.7805 9.76429C40.7805 11.7863 41.1395 13.5163 41.8185 14.7683C42.6755 16.3493 44.0635 17.2203 45.7275 17.2203ZM45.7276 5.01929C47.8206 5.01929 47.9276 8.97129 47.9276 9.76429C47.9276 10.5563 47.8206 14.5093 45.7276 14.5093C43.6346 14.5093 43.5276 10.5563 43.5276 9.76429C43.5276 8.97229 43.6336 5.01929 45.7276 5.01929Z" fill="#2F3438"/>
<path d="M36.1047 24.9231C29.4117 26.6381 27.1687 25.6621 26.5147 25.1631C26.0857 24.8361 25.8947 24.4081 25.8947 23.7761V22.9691H35.5977C36.3567 22.9691 36.9707 22.3621 36.9707 21.6131V16.8721C36.9707 16.1231 36.3567 15.5161 35.5977 15.5161H24.5207C23.7617 15.5161 23.1477 16.1231 23.1477 16.8721C23.1503 17.2337 23.2964 17.5796 23.5539 17.8336C23.8113 18.0877 24.159 18.2292 24.5207 18.2271H34.2237V20.2571H24.5207C23.7617 20.2571 23.1477 20.8651 23.1477 21.6131V23.7761C23.1477 25.2451 23.7307 26.4651 24.8337 27.3081C25.9637 28.1701 27.6107 28.6021 29.7607 28.6021C31.7007 28.6011 34.0507 28.2501 36.7957 27.5461C36.9693 27.5029 37.1326 27.4257 37.2762 27.3191C37.4198 27.2124 37.5408 27.0784 37.6323 26.9247C37.7238 26.771 37.7839 26.6007 37.8092 26.4236C37.8345 26.2465 37.8245 26.0662 37.7797 25.8931C37.6845 25.5434 37.4552 25.2454 37.1416 25.0638C36.828 24.8821 36.4554 24.8316 36.1047 24.9231Z" fill="#2F3438"/>
<path d="M35.1267 1.20731C35.3928 0.944784 35.7522 0.798659 36.126 0.801054C36.91 0.801054 37.545 1.42805 37.545 2.20105V13.4011C37.5424 13.7747 37.3916 14.1319 37.1257 14.3944C36.8598 14.6569 36.5006 14.8032 36.127 14.8011C35.343 14.8011 34.707 14.1741 34.707 13.4011V2.20105C34.7097 1.82727 34.8606 1.46983 35.1267 1.20731Z" fill="#2F3438"/>
<path d="M36.1258 0.801054C35.752 0.798659 35.3926 0.944784 35.1265 1.20731C34.8604 1.46983 34.7094 1.82727 34.7068 2.20105V13.4011C34.7068 14.1741 35.3428 14.8011 36.1268 14.8011C36.5004 14.8032 36.8596 14.6569 37.1255 14.3944C37.3913 14.1319 37.5421 13.7747 37.5448 13.4011V2.20105C37.5448 1.42805 36.9098 0.801054 36.1258 0.801054Z" fill="#2F3438"/>
<path d="M3.83179 20.1025C6.25889 19.9648 6.26019 19.9771 8.05513 19.5185L8.74613 19.3285C8.91971 19.2853 9.08301 19.2082 9.22661 19.1015C9.3702 18.9948 9.49124 18.8608 9.58273 18.7071C9.67422 18.5534 9.73436 18.3831 9.75966 18.206C9.78496 18.029 9.77492 17.8486 9.73013 17.6755C9.63494 17.3258 9.40563 17.0278 9.09202 16.8462C8.77841 16.6646 8.40581 16.6141 8.05513 16.7055C6.23413 17.2645 5.18492 17.3844 3.83179 17.3915H2.10813C1.34913 17.3915 0.734131 17.9985 0.734131 18.7475C0.736774 19.1094 0.882988 19.4554 1.14064 19.7094C1.39828 19.9635 1.74628 20.1049 2.10813 20.1025H3.83179Z" fill="#2F3438"/>
<path d="M13.5166 11.0418H16.2416C17.0006 11.0418 17.6156 11.6488 17.6156 12.3968C17.6156 13.1458 17.0016 13.7528 16.2416 13.7528H13.5166C12.7576 13.7528 12.1436 13.1468 12.1436 12.3968C12.1436 11.6488 12.7576 11.0418 13.5166 11.0418Z" fill="#2F3438"/>
<path d="M17.1751 1.2804C16.4161 1.2804 15.8011 1.8874 15.8011 2.6354V26.5554C15.8037 26.9172 15.9499 27.2632 16.2076 27.5173C16.4652 27.7714 16.8132 27.9128 17.1751 27.9104C17.9341 27.9104 18.5491 27.3044 18.5491 26.5554V2.6364C18.5491 1.8874 17.9341 1.2804 17.1751 1.2804Z" fill="#2F3438"/>
<path d="M12.521 2.25598C11.762 2.25598 11.147 2.86298 11.147 3.61098V25.531C11.1497 25.8928 11.2959 26.2388 11.5535 26.4929C11.8112 26.747 12.1592 26.8884 12.521 26.886C13.28 26.886 13.895 26.28 13.895 25.531V3.61198C13.895 2.86298 13.28 2.25598 12.521 2.25598Z" fill="#2F3438"/>
<path d="M3.83179 20.1025C4.59079 20.1025 6.55892 19.5028 6.55892 18.7538C6.55892 18.0048 5.94392 17.3978 5.18492 17.3978H3.48313V6.15777C3.48313 5.40877 2.86813 4.80177 2.10813 4.80177C1.34913 4.80177 0.734131 5.40877 0.734131 6.15777V18.7538C0.734131 19.5028 1.34913 20.1088 2.10813 20.1088L3.83179 20.1025Z" fill="#2F3438"/>
<circle cx="25.991" cy="7.33239" r="4.0042" stroke="#2F3438" stroke-width="2.5"/>
<path d="M73.3104 0.801054C72.9366 0.798659 72.5772 0.944784 72.3111 1.20731C72.045 1.46983 71.8941 1.82727 71.8914 2.20105V13.4011C71.8914 14.1741 72.5274 14.8011 73.3114 14.8011C73.685 14.8032 74.0442 14.6569 74.3101 14.3944C74.576 14.1319 74.7268 13.7747 74.7294 13.4011V2.20105C74.7294 1.42805 74.0944 0.801054 73.3104 0.801054ZM66.6864 13.1911C66.8137 13.5306 67.07 13.806 67.3995 13.9574C67.729 14.1087 68.1049 14.1237 68.4454 13.9991C68.6142 13.9401 68.7697 13.8481 68.9027 13.7286C69.0356 13.609 69.1436 13.4642 69.2201 13.3026C69.2967 13.141 69.3404 12.9658 69.3487 12.7872C69.357 12.6086 69.3297 12.4301 69.2684 12.2621C69.2234 12.1421 68.3244 9.76205 66.0774 8.06705L69.5674 4.23705C69.9294 3.83905 70.0214 3.26705 69.8004 2.77905C69.6901 2.53896 69.5133 2.33558 69.2908 2.19306C69.0683 2.05053 68.8096 1.97487 68.5454 1.97505H59.9854C59.2264 1.97505 58.6114 2.58205 58.6114 3.33105C58.6114 4.07905 59.2264 4.68605 59.9854 4.68605H65.4624L58.9634 11.8181C58.8426 11.9495 58.7493 12.1039 58.6889 12.2719C58.6286 12.44 58.6024 12.6184 58.612 12.7967C58.6216 12.975 58.6668 13.1496 58.7448 13.3103C58.8228 13.4709 58.9322 13.6143 59.0664 13.7321C59.3294 13.9651 59.6574 14.0801 59.9854 14.0801C60.3614 14.0801 60.7354 13.9281 61.0074 13.6301L64.2314 10.0921C65.9374 11.2821 66.6684 13.1461 66.6854 13.1921L66.6864 13.1911Z" fill="#2F3438"/>
<path fill-rule="evenodd" clip-rule="evenodd" d="M72.2472 18.163C72.2472 17.414 72.8622 16.807 73.6212 16.807C74.3802 16.807 74.9952 17.414 74.9952 18.163V24.79C74.9952 26.704 73.4162 28.261 71.4762 28.261H64.8422C62.9022 28.261 61.3232 26.704 61.3232 24.79V18.163C61.3232 17.414 61.9382 16.807 62.6972 16.807C63.4562 16.807 64.0712 17.414 64.0712 18.163V20.258H72.2472V18.163ZM64.8422 25.55H71.4762C71.9012 25.55 72.2472 25.21 72.2472 24.79V22.969H64.0712V24.789C64.0712 25.209 64.4172 25.55 64.8422 25.55Z" fill="#2F3438"/>
</svg>
